<svg xmlns="http://www.w3.org/2000/svg" viewBox="0 0 423.7 64.1"><style type="text/css">  
	.st0{fill:#FFFFFF;}
</style><path class="st0" d="M0.5 13C0.2 12.6 0 12.1 0 11.5c0-0.8 0.3-1.5 0.9-2.1C1.4 8.8 2.2 8.5 3 8.5c0.8 0 1.5 0.3 2.1 0.9 0.7 0.6 1.3 1.4 1.8 2.3s1 2 1.4 3 0.7 2.1 0.9 3c0.3 1.2 0.4 2.6 0.5 4.1 0.1 1.6 0.2 3.2 0.4 5l7.3-0.2c1.4-0.1 2.7-0.1 4.1-0.1 1.4 0 2.6-0.1 3.8-0.2 -0.2-2-0.3-3.8-0.4-5.4 -0.1-1.6-0.3-3.1-0.5-4.5 -0.2-1.4-0.5-2.9-0.9-4.4 -0.4-1.5-1-3.2-1.8-5.2 -0.2-0.3-0.2-0.7-0.2-1 0-0.9 0.3-1.6 1-2.1C23.3 3.2 24 3 24.8 3c1.1 0 2 0.5 2.7 1.6 0.7 1 1.3 2.2 1.6 3.6s0.7 2.6 0.9 3.8c0.2 1.2 0.3 1.9 0.4 2.1 0.2 0.8 0.3 1.8 0.4 3.1 0.1 1.3 0.2 2.8 0.3 4.4 0.1 1.6 0.1 3.3 0.2 5.1 0.1 1.8 0.1 3.6 0.1 5.5 0 3 0 5.9-0.1 8.7s-0.2 5.3-0.4 7.4c-0.1 0.9-0.4 1.5-1 1.9s-1.1 0.6-1.7 0.6c-0.7 0-1.4-0.2-2.1-0.6 -0.7-0.4-1-1-1-1.9 0-2.4 0.1-4.9 0.3-7.7 0.2-2.7 0.3-5.5 0.3-8.4 -1.1 0.1-2.3 0.2-3.7 0.2 -1.4 0-2.8 0.1-4.2 0.1l-7.4 0.2c0 2.5-0.1 5-0.2 7.5C10 42.7 9.8 45 9.6 47.1c-0.1 0.9-0.5 1.6-1.1 2.1 -0.6 0.5-1.3 0.7-2 0.7 -0.7 0-1.4-0.2-1.9-0.6 -0.5-0.4-0.8-1-0.8-1.8 0-2.7 0.1-5.4 0.3-8.3 0.2-2.9 0.3-5.7 0.3-8.5 0-2.1-0.1-4.1-0.2-5.9C4 23 3.8 21.2 3.4 19.6l-0.9-3C2.3 16.1 2 15.6 1.7 15 1.3 14.4 1 13.7 0.5 13z"/><path class="st0" d="M48.9 23.8c0.2-0.2 0.4-0.3 0.7-0.4 0.3-0.1 0.5-0.2 0.9-0.2 1.4 0.1 2.8 0.5 4.2 1.1 1.5 0.6 2.8 1.5 4 2.7 1.2 1.1 2.2 2.5 3 4.1 0.8 1.6 1.2 3.5 1.2 5.5 -0.1 2.2-0.4 4.1-1.1 5.7s-1.6 3-2.8 4.1 -2.6 1.9-4.1 2.5c-1.6 0.5-3.3 0.8-5.2 0.8 -1.5 0-2.9-0.3-4.5-0.8 -1.5-0.5-2.9-1.4-4.1-2.4 -1.2-1.1-2.2-2.4-3-3.9 -0.8-1.5-1.2-3.3-1.2-5.2 0-1.8 0.3-3.5 1-5.2 0.7-1.7 1.5-3.2 2.5-4.5 1-1.3 2.1-2.3 3.4-3.1 1.2-0.8 2.4-1.2 3.5-1.2C47.9 23.4 48.4 23.6 48.9 23.8zM49.4 28.4c-0.9 0.5-1.8 1-2.5 1.4 -0.8 0.5-1.4 1.1-2 1.8 -0.5 0.7-1 1.5-1.3 2.5 -0.3 1-0.4 2.2-0.4 3.7 0 1.3 0.2 2.4 0.7 3.2 0.4 0.8 1 1.5 1.7 2 0.7 0.5 1.5 0.8 2.3 1 0.9 0.2 1.7 0.3 2.5 0.3 1.8 0 3.3-0.7 4.5-2.1 1.2-1.4 1.8-3.1 1.8-5.2 0-1.6-0.2-2.8-0.7-3.8 -0.4-1-1-1.8-1.7-2.4 -0.7-0.6-1.5-1.1-2.4-1.4C51.1 29.1 50.2 28.8 49.4 28.4z"/><path class="st0" d="M65.1 8c-0.4-0.6-0.6-1.1-0.6-1.6 0-0.8 0.4-1.5 1.1-2 0.7-0.6 1.5-0.9 2.3-0.9 0.7 0 1.4 0.4 2.1 1.1 0.7 0.7 1.3 1.6 1.9 2.6 0.6 1 1.1 2.1 1.6 3.1 0.5 1.1 0.9 1.9 1.2 2.6 0.2 2.2 0.3 4.5 0.3 6.8 0.1 2.3 0.1 4.6 0.1 6.9 0 3.8 0 7.4-0.1 10.8 -0.1 3.5-0.2 6.8-0.3 9.9 -0.1 0.8-0.3 1.4-0.8 1.8s-1 0.6-1.7 0.6c-0.8 0-1.5-0.2-2.3-0.7 -0.8-0.5-1.1-1.1-1.1-2 0-2.2 0.1-4.7 0.3-7.5 0.2-2.8 0.3-5.7 0.3-8.7 0-2.9 0-5.7-0.1-8.6 -0.1-2.8-0.2-5.4-0.3-7.8 -0.5-1-1-2.1-1.6-3.2C66.6 10.3 65.9 9.1 65.1 8z"/><path class="st0" d="M97.7 8.7c-0.4-0.5-0.6-1-0.6-1.6 0-0.8 0.4-1.5 1.1-2.1s1.4-0.8 2.2-0.8 1.5 0.4 2.3 1.2c0.7 0.8 1.4 1.7 2 2.8 0.6 1.1 1.1 2.1 1.5 3.1 0.4 1 0.7 1.7 0.9 2 0.1 2.7 0.2 5.3 0.2 7.9 0.1 2.5 0.1 5 0.1 7.5 0 1.7 0 3.4 0 5s-0.1 3.3-0.2 5c0.1 1.3 0.5 2.5 1.1 3.5 0.7 1 1.3 2.1 1.8 3.2 0.2 0.3 0.2 0.6 0.2 0.9 0 0.8-0.4 1.5-1.1 2s-1.4 0.7-2.1 0.7c-1.8 0-3.3-1.7-4.5-5 -2.3 2.1-5.1 3.2-8.3 3.2 -3.9 0-7-1.1-9.3-3.2s-3.4-5.3-3.4-9.5c0-1.9 0.4-3.6 1.2-5.2 0.8-1.5 1.8-2.8 2.9-3.8s2.5-1.8 3.9-2.3c1.4-0.5 2.8-0.8 4.2-0.8 1.3 0.1 2.6 0.4 3.9 0.8 1.4 0.4 2.6 1 3.8 1.7 0-1.8 0-3.5-0.1-5.3 -0.1-1.7-0.2-3.4-0.3-5 -0.5-1-1-2-1.5-3C99.1 10.8 98.5 9.8 97.7 8.7zM101.3 35.2v-0.6c-0.1-1.8-0.8-3.4-2.3-4.6S95.5 28 93.1 28c-0.5 0-1.1 0.1-1.8 0.4 -0.7 0.3-1.3 0.7-1.9 1.2 -0.6 0.5-1.1 1.3-1.5 2.1 -0.4 0.9-0.6 1.9-0.6 3.1 0 2 0.6 3.6 1.7 5 1.1 1.4 2.7 2 4.7 2 0.9 0 1.8-0.2 2.6-0.5 0.9-0.3 1.6-0.8 2.3-1.4s1.3-1.4 1.7-2.2C100.9 37 101.2 36.1 101.3 35.2z"/><path class="st0" d="M150.7 7.7c0.2-0.6 0.6-1.1 1.2-1.4 0.7-0.3 1.3-0.5 2.1-0.5 0.7 0 1.3 0.1 2 0.4 0.7 0.3 1.1 0.7 1.3 1.4 1.3 7.7 2.2 14.6 2.6 20.6 0.4 6 0.8 11.4 1.1 16.1 -0.1 0.6-0.4 1.1-0.9 1.4s-1.1 0.5-1.8 0.5c-0.7 0-1.3-0.1-1.8-0.4 -0.5-0.3-0.8-0.7-0.8-1.3 -0.2-4.2-0.4-8.8-0.8-13.7 -0.4-4.9-0.9-10.2-1.7-16 -0.8 2.2-1.7 4.5-2.7 7 -1 2.5-2 5-3 7.5s-2 4.9-3 7.3c-1 2.4-1.8 4.5-2.6 6.5 -0.4 1-1 1.8-1.8 2.3 -0.8 0.5-1.5 0.7-2.2 0.7 -0.6 0-1.2-0.4-1.8-1.1 -0.5-0.8-1.1-1.8-1.6-3s-1.1-2.7-1.6-4.3c-0.5-1.6-1.1-3.2-1.8-4.9 -0.9-2.3-1.8-4.7-2.7-7.1 -0.9-2.4-1.7-4.7-2.3-6.9 -0.3 1.9-0.5 4-0.8 6.1 -0.3 2.2-0.6 4.4-1 6.6s-0.9 4.5-1.5 6.8c-0.6 2.3-1.4 4.5-2.3 6.6 -0.2 0.5-0.5 0.8-1 1 -0.4 0.2-0.9 0.3-1.4 0.3 -0.7 0-1.4-0.2-2.1-0.7 -0.7-0.4-1-1.1-1-1.8 0-0.3 0-0.4 0.1-0.5 1-2.8 1.9-5.7 2.6-8.8 0.7-3 1.3-6.1 1.7-9.1 0.5-3 0.9-5.9 1.3-8.7 0.4-2.8 0.8-5.4 1.2-7.7 0-0.6 0.3-1.1 0.9-1.6 0.6-0.4 1.3-0.6 2-0.6 0.6 0 1.2 0.1 1.8 0.4 0.6 0.2 1 0.6 1.2 1.2 1.1 3.1 2.1 5.9 3.1 8.6 1 2.6 1.9 5.1 2.7 7.5s1.7 4.6 2.5 6.8c0.8 2.2 1.6 4.3 2.3 6.4l5.7-14.5c1-2.5 2-5 3-7.5C148.3 13.2 149.5 10.5 150.7 7.7z"/><path class="st0" d="M182.3 61.2c-1.5 1.2-3.3 1.8-5.2 1.8 -1.7 0-3.4-0.4-5.1-1.3 -1.7-0.8-3-2-4-3.4 -0.2-0.2-0.3-0.5-0.3-0.9 0-0.7 0.2-1.4 0.7-2.1 0.5-0.8 1.1-1.1 1.8-1.1 0.3 0 0.5 0.1 0.8 0.2 0.9 0.8 1.9 1.5 2.9 2s2 0.7 2.9 0.7c1.7 0 3.1-1.1 4.2-3.2 1.1-2.2 1.9-5.3 2.5-9.5 -0.8 0.3-1.6 0.5-2.4 0.6 -0.8 0.1-1.7 0.2-2.5 0.2 -0.8 0-1.8-0.1-3.2-0.2 -1.4-0.1-2.7-0.6-4.1-1.4 -1.4-0.8-2.5-2.1-3.5-3.9 -1-1.8-1.5-4.4-1.5-7.9 0-0.9 0-1.9 0.1-2.9 0.1-1 0.1-2 0.2-2.9 0.1-1 0.2-1.9 0.3-2.7 0.1-0.9 0.2-1.6 0.3-2.2 0.1-0.8 0.4-1.4 0.9-1.8 0.5-0.4 1.1-0.5 1.7-0.5 0.7 0 1.4 0.2 2 0.6 0.6 0.4 0.9 1 0.9 1.7 0 0.9-0.1 2.1-0.3 3.4 -0.2 1.4-0.3 2.8-0.3 4.2 0 2 0.1 3.7 0.2 5.1 0.1 1.4 0.4 2.5 0.9 3.4s1.2 1.5 2.1 1.8c0.9 0.4 2.1 0.5 3.7 0.5 0.9 0 1.8-0.1 2.5-0.4 0.8-0.3 1.7-0.5 2.7-0.8 0.3-3.9 0.5-7.8 0.5-11.8 0-1.8 0-3.5-0.1-5.1 -0.1-1.6-0.1-3.1-0.2-4.5 0-0.6 0.3-1.1 0.9-1.4 0.6-0.4 1.3-0.6 2.1-0.6 0.6 0 1.2 0.1 1.8 0.4 0.6 0.2 1 0.6 1.2 1.2 0.1 1.2 0.2 2.5 0.2 3.8 0.1 1.3 0.1 2.7 0.1 4 0 3.6-0.2 7.4-0.5 11.3 -0.3 3.9-0.9 7.5-1.6 11s-1.6 6.5-2.6 9.1C184.9 58.2 183.7 60.1 182.3 61.2z"/><path class="st0" d="M192.9 8c-0.4-0.6-0.6-1.1-0.6-1.6 0-0.8 0.4-1.5 1.1-2 0.7-0.6 1.5-0.9 2.3-0.9 0.5 0 1 0.2 1.4 0.5 0.4 0.3 0.9 0.8 1.3 1.3 0.4 0.5 0.8 1.1 1.1 1.6 0.3 0.5 0.6 1.1 0.9 1.5 1.2-1 2.6-1.9 4.1-2.7 1.5-0.7 3.2-1.1 5.1-1.1 2.7 0 5 0.4 6.8 1.3 1.8 0.9 3.4 2 4.5 3.4s2 3 2.6 4.8c0.6 1.8 0.9 3.6 1 5.5 0 1.5-0.3 3.1-0.9 4.8 -0.6 1.7-1.4 3.2-2.6 4.6 -1.1 1.4-2.6 2.6-4.4 3.6 -1.8 0.9-3.9 1.4-6.3 1.4 -1.4 0-2.7-0.1-3.9-0.4 -1.2-0.3-2.3-0.6-3.2-1 0 3.1-0.1 6.1-0.2 8.9 -0.1 2.8-0.3 5.2-0.5 7 -0.1 0.8-0.4 1.4-1 1.8s-1.1 0.6-1.7 0.6c-0.9 0-1.7-0.2-2.4-0.7s-1.1-1.1-1.1-2c0-2.2 0.1-4.7 0.3-7.7 0.2-2.9 0.3-6 0.3-9.1 0-3 0-6-0.1-9 -0.1-3-0.2-5.6-0.3-8 -0.5-1-1-2.1-1.6-3.2C194.3 10.3 193.6 9.1 192.9 8zM202.6 14.3c0.2 1.9 0.3 3.8 0.4 5.9 0.1 2.1 0.1 4.1 0.2 6.2 0.9 0.8 1.9 1.4 3 1.8 1.1 0.3 2.5 0.5 4 0.5s2.9-0.3 3.9-1c1-0.7 1.9-1.5 2.5-2.5 0.6-1 1.1-2 1.3-3.2 0.3-1.1 0.4-2.1 0.4-3 -0.1-0.9-0.3-1.9-0.7-2.9 -0.4-1-0.9-1.9-1.6-2.7 -0.7-0.8-1.5-1.4-2.5-2 -1-0.5-2.2-0.8-3.6-0.8 -1.8 0-3.3 0.3-4.5 1C204.3 12.4 203.4 13.3 202.6 14.3z"/><path class="st0" d="M236.4 23.8c0.2-0.2 0.4-0.3 0.7-0.4 0.3-0.1 0.5-0.2 0.9-0.2 1.4 0.1 2.8 0.5 4.2 1.1 1.5 0.6 2.8 1.5 4 2.7 1.2 1.1 2.2 2.5 3 4.1 0.8 1.6 1.2 3.5 1.2 5.5 -0.1 2.2-0.4 4.1-1.1 5.7s-1.6 3-2.8 4.1 -2.6 1.9-4.1 2.5c-1.6 0.5-3.3 0.8-5.2 0.8 -1.5 0-2.9-0.3-4.5-0.8 -1.5-0.5-2.9-1.4-4.1-2.4 -1.2-1.1-2.2-2.4-3-3.9 -0.8-1.5-1.2-3.3-1.2-5.2 0-1.8 0.3-3.5 1-5.2 0.7-1.7 1.5-3.2 2.5-4.5 1-1.3 2.1-2.3 3.4-3.1 1.2-0.8 2.4-1.2 3.5-1.2C235.4 23.4 235.9 23.6 236.4 23.8zM236.9 28.4c-0.9 0.5-1.8 1-2.5 1.4 -0.8 0.5-1.4 1.1-2 1.8 -0.5 0.7-1 1.5-1.3 2.5 -0.3 1-0.4 2.2-0.4 3.7 0 1.3 0.2 2.4 0.7 3.2 0.4 0.8 1 1.5 1.7 2 0.7 0.5 1.5 0.8 2.3 1 0.9 0.2 1.7 0.3 2.5 0.3 1.8 0 3.3-0.7 4.5-2.1 1.2-1.4 1.8-3.1 1.8-5.2 0-1.6-0.2-2.8-0.7-3.8 -0.4-1-1-1.8-1.7-2.4 -0.7-0.6-1.5-1.1-2.4-1.4C238.6 29.1 237.7 28.8 236.9 28.4z"/><path class="st0" d="M252.8 25.2c-0.4-0.6-0.6-1.1-0.6-1.6 0-0.8 0.4-1.5 1.1-2 0.7-0.6 1.5-0.9 2.3-0.9 0.6 0 1.2 0.2 1.7 0.7 0.5 0.5 0.9 1 1.4 1.6 0.4 0.6 0.8 1.3 1.1 2s0.6 1.3 0.8 1.8c1-0.8 2.4-1.6 4-2.2 1.6-0.7 3.4-1 5.3-1 1.7 0 3.3 0.3 4.8 1 1.5 0.7 2.9 1.6 4.1 2.7 1.2 1.1 2.1 2.5 2.8 4.1 0.7 1.6 1.1 3.3 1.1 5 0 1.5-0.2 3-0.7 4.7 -0.5 1.7-1.3 3.2-2.3 4.6s-2.5 2.6-4.3 3.5c-1.7 0.9-3.9 1.4-6.4 1.4 -1.2 0-2.4-0.1-3.5-0.4 -1.1-0.2-2.2-0.6-3.3-1 -0.1 2.9-0.1 5.3-0.1 7.2 0 1.9-0.1 3.4-0.3 4.5 -0.2 1.1-0.5 1.9-1 2.3 -0.5 0.4-1.2 0.7-2.2 0.7 -0.7-0.1-1.3-0.4-1.8-0.7 -0.5-0.4-0.7-0.9-0.7-1.6v-0.4l0.2-6.1c0.1-2.1 0.2-4.4 0.2-6.7 0-2.3 0-4.6 0-6.9 0-2.2 0-4.3 0-6.1 0-1.8-0.1-3.1-0.1-3.7 -0.6-0.9-1.1-1.9-1.5-3C254.1 27.7 253.5 26.5 252.8 25.2zM261.9 32.7c0 1.5 0 3.2 0.1 5.1 0.1 2 0.1 4 0.1 6.1 2 0.9 4.1 1.3 6.1 1.3 1.6 0 3-0.2 4-0.7 1.1-0.5 1.9-1.1 2.5-1.8 0.6-0.8 1.1-1.6 1.3-2.5s0.4-1.8 0.4-2.7c0-2.5-0.7-4.5-2.1-5.9 -1.4-1.4-3.2-2.1-5.4-2.1 -1.5 0-2.8 0.3-3.9 1C264 31.1 262.9 31.8 261.9 32.7z"/><path class="st0" d="M306 22c0.8 0.3 1.4 0.7 1.8 1.3 0.4 0.6 0.5 1.3 0.5 2 0 0.7-0.2 1.3-0.7 1.8s-1 0.8-1.6 0.8c-0.6 0-1.2 0-1.8-0.1 -0.6-0.1-1.3-0.1-2-0.1 -1.5 0-3 0.2-4.3 0.6 -1.4 0.4-2.5 1.3-3.3 2.7 -0.7 1-1.1 2-1.4 3 -0.3 1-0.4 1.9-0.4 2.7 0 2.1 0.7 3.7 2.1 5 1.4 1.2 3 1.8 4.8 1.8 1.7 0 3.1-0.3 4.3-0.8 1.1-0.5 2.4-1.5 3.7-2.9 0.4-0.4 0.8-0.5 1.3-0.5 0.6 0 1.3 0.3 1.9 0.9 0.7 0.6 1 1.3 1 2 0 0.7-0.3 1.4-0.9 2.3 -0.6 0.8-1.5 1.6-2.5 2.3 -1.1 0.7-2.3 1.3-3.6 1.8s-2.7 0.7-4.1 0.7c-1.5 0-3-0.2-4.7-0.7 -1.7-0.4-3.2-1.2-4.6-2.2s-2.6-2.3-3.5-3.9 -1.4-3.5-1.4-5.8c0-2.6 0.8-5.4 2.5-8.4 0.7-1.3 1.6-2.4 2.7-3.2 1.1-0.8 2.2-1.5 3.4-2 1.2-0.5 2.4-0.8 3.7-1 1.3-0.2 2.5-0.3 3.7-0.3C303.8 21.7 305 21.8 306 22z"/><path class="st0" d="M328 23.8c0.2-0.2 0.4-0.3 0.7-0.4 0.3-0.1 0.5-0.2 0.9-0.2 1.4 0.1 2.8 0.5 4.2 1.1 1.5 0.6 2.8 1.5 4 2.7 1.2 1.1 2.2 2.5 3 4.1 0.8 1.6 1.2 3.5 1.2 5.5 -0.1 2.2-0.4 4.1-1.1 5.7s-1.6 3-2.8 4.1 -2.6 1.9-4.1 2.5c-1.6 0.5-3.3 0.8-5.2 0.8 -1.5 0-2.9-0.3-4.5-0.8 -1.5-0.5-2.9-1.4-4.1-2.4 -1.2-1.1-2.2-2.4-3-3.9 -0.8-1.5-1.2-3.3-1.2-5.2 0-1.8 0.3-3.5 1-5.2 0.7-1.7 1.5-3.2 2.5-4.5 1-1.3 2.1-2.3 3.4-3.1 1.2-0.8 2.4-1.2 3.5-1.2C326.9 23.4 327.5 23.6 328 23.8zM328.5 28.4c-0.9 0.5-1.8 1-2.5 1.4 -0.8 0.5-1.4 1.1-2 1.8 -0.5 0.7-1 1.5-1.3 2.5 -0.3 1-0.4 2.2-0.4 3.7 0 1.3 0.2 2.4 0.7 3.2 0.4 0.8 1 1.5 1.7 2 0.7 0.5 1.5 0.8 2.3 1 0.9 0.2 1.7 0.3 2.5 0.3 1.8 0 3.3-0.7 4.5-2.1 1.2-1.4 1.8-3.1 1.8-5.2 0-1.6-0.2-2.8-0.7-3.8 -0.4-1-1-1.8-1.7-2.4 -0.7-0.6-1.5-1.1-2.4-1.4C330.2 29.1 329.3 28.8 328.5 28.4z"/><path class="st0" d="M354.9 29.5c2.1-2.1 4.6-3.8 7.4-5 2.9-1.3 5.9-2 9.1-2.1 0.8 0.1 1.4 0.5 1.8 1.1 0.4 0.6 0.6 1.2 0.6 1.9 0 0.6-0.1 1.1-0.4 1.6 -0.3 0.5-0.7 0.7-1.3 0.7 -3.4 0.8-6.4 1.8-9 3 -2.6 1.2-4.6 2.8-6.2 4.8 0 1 0.1 2.1 0.2 3.1 0.1 1 0.2 2.1 0.2 3.2 0 1.4 0 2.7-0.1 4.1 -0.1 1.4-0.2 2.7-0.5 4 -0.1 0.7-0.4 1.1-1 1.4 -0.6 0.3-1.3 0.4-2 0.4 -0.7 0-1.4-0.2-2-0.5 -0.6-0.3-0.9-0.8-0.9-1.4 0.2-1.5 0.3-3 0.4-4.5 0.1-1.5 0.2-3.1 0.2-4.6 0-2-0.2-3.7-0.7-5.1 -0.5-1.4-1-2.5-1.4-3.4 -0.2-0.3-0.5-0.6-0.9-1.1 -0.4-0.5-0.9-1-1.4-1.6s-0.9-1.1-1.3-1.7c-0.4-0.6-0.5-1.1-0.5-1.5 0-0.9 0.4-1.7 1.1-2.3 0.7-0.7 1.5-1 2.4-1 0.9 0 1.9 0.7 3.1 2C352.8 26.1 353.9 27.6 354.9 29.5z"/><path class="st0" d="M377.1 25.2c-0.4-0.6-0.6-1.1-0.6-1.6 0-0.8 0.4-1.5 1.1-2 0.7-0.6 1.5-0.9 2.3-0.9 0.5 0 1 0.2 1.5 0.5 0.5 0.3 0.9 0.7 1.2 1.2 0.3 0.5 0.7 1 0.9 1.5 0.3 0.5 0.5 1 0.7 1.4 1-0.4 2.2-0.7 3.6-1 1.4-0.3 2.9-0.4 4.4-0.4 0.7 0 1.5 0 2.5 0.1 1 0.1 2 0.3 2.9 0.8 1 0.4 1.8 1.1 2.7 2.1 0.8 1 1.4 2.3 1.8 4.1 0.2 0.9 0.3 2.1 0.4 3.4 0 1.4 0.1 2.8 0.1 4.2 -0.1 1.3-0.1 2.5-0.1 3.8 0 1.3-0.1 2.4-0.3 3.4 -0.2 1-0.5 1.8-0.9 2.5 -0.4 0.6-1 0.9-1.9 0.9 -0.9 0-1.6-0.3-2.2-0.8 -0.6-0.5-0.9-1.2-0.9-2 0-1.5 0.1-3.2 0.2-5.2 0.2-1.9 0.2-3.7 0.2-5.2 0-1.4-0.1-2.6-0.4-3.4 -0.2-0.9-0.6-1.6-1-2.1 -0.4-0.5-1-0.8-1.6-1 -0.7-0.2-1.4-0.2-2.3-0.2 -0.9 0-1.8 0.1-2.7 0.4 -0.9 0.2-1.8 0.5-2.7 0.7 0.1 1 0.1 2 0.1 3 0 1 0 2.1 0 3.3 0 1.8 0 3.5 0 5 0 1.5-0.1 2.9-0.3 4 -0.2 1.1-0.5 2-1.1 2.7 -0.5 0.7-1.3 1-2.3 1 -0.7-0.1-1.3-0.4-1.8-0.8 -0.5-0.4-0.7-1-0.7-1.6 0-1.6 0.1-3.2 0.2-4.9 0.1-1.7 0.2-3.6 0.2-5.5 0-1 0-1.9 0-2.7 0-0.8-0.1-1.5-0.1-2.3 -0.6-0.9-1.1-1.9-1.5-3C378.4 27.7 377.8 26.5 377.1 25.2z"/><path class="st0" d="M413.2 39.6c0.7 0 1.6 0.1 2.8 0.2 1.2 0.1 2.4 0.4 3.5 1 1.1 0.5 2.1 1.4 3 2.5 0.8 1.1 1.3 2.7 1.3 4.8 0 1.9-0.7 3.6-2 5 -1.3 1.5-3.1 2.2-5.5 2.2 -1.1 0-2.1-0.2-3-0.7s-1.7-1.1-2.4-1.8c-0.7-0.7-1.2-1.5-1.6-2.3s-0.6-1.7-0.6-2.5c0.1-0.7 0.2-1.4 0.4-2.1 0.2-0.7 0.6-1.2 1.2-1.6l0.9-0.6c-0.3-0.4-0.4-0.8-0.4-1.2 0-0.8 0.2-1.4 0.7-2C411.9 40 412.5 39.7 413.2 39.6zM413 2.1V1.9c0-0.6 0.3-1 0.9-1.4 0.6-0.3 1.4-0.5 2.2-0.5 0.7 0 1.5 0.1 2.2 0.4 0.7 0.3 1.3 0.7 1.7 1.3 0 0.7 0 1.4-0.1 1.9 -0.1 0.5-0.1 1-0.2 1.3l-0.6 2.3c0.2 1.6 0.3 2.9 0.4 4 0.1 1 0.2 2 0.4 2.9 0.1 0.9 0.2 1.9 0.2 2.9 0.1 1 0.1 2.2 0.1 3.8 0 1.7-0.1 3.4-0.2 5.2 -0.1 1.7-0.3 3.3-0.6 4.6 -0.3 1.4-0.7 2.5-1.3 3.4s-1.3 1.3-2.1 1.3c-0.7 0-1.4-0.2-2-0.7 -0.6-0.4-0.9-1-0.9-1.5 0-0.2 0-0.4 0.1-0.5 0.4-1.4 0.7-2.7 0.8-3.9 0.1-1.2 0.2-2.3 0.2-3.4 0-2.9 0-5.2-0.1-6.9 -0.1-1.7-0.2-3.4-0.3-4.8 -0.1-1.5-0.2-3-0.4-4.7S413.2 4.9 413 2.1zM414.8 44.6c0.1 0.2 0.2 0.4 0.2 0.7 0 0.4-0.2 0.9-0.5 1.5 -0.4 0.6-0.5 1-0.5 1.3 0 0.6 0.2 1.1 0.7 1.4 0.5 0.4 1 0.6 1.5 0.6 1 0 1.8-0.3 2.1-0.8 0.4-0.5 0.6-1 0.6-1.3 0-0.8-0.1-1.4-0.4-1.9s-0.5-0.8-0.9-1.1 -0.8-0.4-1.3-0.4C415.7 44.6 415.2 44.6 414.8 44.6z"/></svg>